<svg width="178" height="20" viewBox="0 0 178 20" fill="none" xmlns="http://www.w3.org/2000/svg">
<path d="M16.096 19.72L3.736 8.56L3.808 19H0.28V0.639999H0.424L12.76 11.968L12.688 1.336H16.192V19.72H16.096ZM22.1809 1.336H34.2289V4.696H25.6609V8.464H33.2449V11.824H25.6609V15.64H34.5649V19H22.1809V1.336ZM37.9253 19L43.7093 9.88L38.1653 1.336H42.6053L46.4213 7.192L49.7333 1.336H53.9573L48.3413 10.12L54.1253 19H49.6373L45.6773 12.904L42.2453 19H37.9253ZM57.2359 1.336H69.1399V4.696H64.8439V19H61.3639V4.696H57.2359V1.336ZM83.1831 1.336H86.6631V19H83.1831V1.336ZM108.478 19.72L96.1182 8.56L96.1902 19H92.6622V0.639999H92.8062L105.142 11.968L105.07 1.336H108.574V19.72H108.478ZM117.227 1.336L121.259 11.296L125.051 1.336H129.179L121.115 19.816L113.051 1.336H117.227ZM133.675 1.336H145.723V4.696H137.155V8.464H144.739V11.824H137.155V15.64H146.059V19H133.675V1.336ZM160.531 5.608C159.859 5.24 159.171 4.936 158.467 4.696C157.779 4.456 157.131 4.336 156.523 4.336C155.771 4.336 155.179 4.488 154.747 4.792C154.315 5.096 154.099 5.552 154.099 6.16C154.099 6.576 154.259 6.952 154.579 7.288C154.915 7.608 155.339 7.896 155.851 8.152C156.379 8.408 156.923 8.64 157.483 8.848C158.171 9.104 158.835 9.432 159.475 9.832C160.115 10.216 160.643 10.752 161.059 11.44C161.475 12.112 161.683 13.008 161.683 14.128C161.683 15.024 161.451 15.856 160.987 16.624C160.523 17.392 159.843 18.016 158.947 18.496C158.051 18.96 156.947 19.192 155.635 19.192C154.627 19.192 153.595 19.04 152.539 18.736C151.499 18.432 150.515 17.952 149.587 17.296L151.123 14.584C151.731 15.032 152.427 15.4 153.211 15.688C153.995 15.976 154.699 16.12 155.323 16.12C155.739 16.12 156.155 16.064 156.571 15.952C157.003 15.824 157.355 15.616 157.627 15.328C157.915 15.04 158.059 14.64 158.059 14.128C158.059 13.6 157.803 13.144 157.291 12.76C156.795 12.36 156.195 12.024 155.491 11.752C154.947 11.544 154.387 11.304 153.811 11.032C153.235 10.76 152.691 10.432 152.179 10.048C151.683 9.648 151.275 9.16 150.955 8.584C150.651 7.992 150.499 7.272 150.499 6.424C150.499 5.4 150.723 4.512 151.171 3.76C151.635 3.008 152.283 2.416 153.115 1.984C153.947 1.536 154.907 1.288 155.995 1.24C157.419 1.24 158.571 1.408 159.451 1.744C160.347 2.08 161.147 2.48 161.851 2.944L160.531 5.608ZM165.332 1.336H177.236V4.696H172.94V19H169.46V4.696H165.332V1.336Z" fill="#128C76"/>
</svg>
